<?xml version="1.0" standalone="no"?>
<!DOCTYPE svg PUBLIC "-//W3C//DTD SVG 20010904//EN"
 "http://www.w3.org/TR/2001/REC-SVG-20010904/DTD/svg10.dtd">
<svg version="1.0" xmlns="http://www.w3.org/2000/svg"
 width="315.000000pt" height="315.000000pt" viewBox="0 0 315.000000 315.000000"
 preserveAspectRatio="xMidYMid meet">
<metadata>
Created by potrace 1.14, written by Peter Selinger 2001-2017
</metadata>
<g transform="translate(0.000000,315.000000) scale(0.100000,-0.100000)"
fill="#000000" stroke="none">
<path d="M0 3100 c0 -50 0 -50 30 -48 17 1 30 6 30 10 0 4 60 6 133 4 72 -1
124 -1 115 1 -10 3 -18 8 -18 11 1 16 28 42 44 42 9 0 16 5 16 10 0 7 6 7 18
1 22 -12 235 -1 249 13 3 3 -134 6 -305 6 l-312 0 0 -50z"/>
<path d="M1380 3070 c0 -47 -4 -80 -10 -80 -24 0 -6 -27 58 -87 l67 -64 6 -77
c10 -129 59 -222 116 -222 27 0 61 -27 47 -37 -131 -91 -126 -89 -201 -79 -22
3 -37 -2 -49 -15 -26 -29 -70 -25 -91 9 -9 15 -18 29 -19 31 -5 6 -29 -24 -48
-62 -16 -32 -24 -37 -53 -37 -20 0 -36 6 -39 14 -14 36 -67 54 -200 70 -36 4
-44 16 -44 67 0 50 -8 60 -30 34 -20 -24 -40 -18 -76 23 -29 33 -35 36 -53 25
-24 -15 -22 -17 -115 134 -61 98 -123 181 -176 233 -14 14 -35 38 -46 54 l-21
29 -18 -27 c-12 -18 -23 -25 -36 -21 -14 5 -17 2 -13 -8 3 -8 -6 -31 -20 -51
-15 -22 -29 -63 -36 -109 -6 -39 -16 -92 -21 -115 -7 -31 -6 -48 1 -57 18 -21
77 -37 109 -30 17 4 32 2 36 -5 4 -6 15 -8 26 -5 17 6 60 -3 109 -22 8 -4 18
-5 23 -5 4 1 7 -3 7 -8 0 -6 -9 -10 -20 -10 -11 0 -20 4 -20 9 0 5 -9 11 -20
14 -11 3 -20 1 -20 -4 0 -5 8 -9 17 -9 11 0 14 -3 7 -10 -13 -13 -121 -14
-164 -1 -34 10 -33 10 12 5 25 -3 49 -1 52 4 8 14 -54 21 -86 10 -21 -8 -31
-6 -44 6 -16 17 -34 21 -34 8 0 -24 153 -67 212 -59 22 3 36 1 32 -4 -3 -5 11
-9 30 -9 20 0 36 -4 36 -10 0 -5 -6 -7 -13 -5 -6 2 -50 7 -97 10 -95 6 -130
10 -177 20 -29 7 -31 5 -26 -14 3 -13 14 -21 27 -22 23 -1 17 -4 -26 -13 -26
-6 -28 -10 -28 -59 0 -28 -7 -70 -15 -92 -8 -22 -14 -62 -15 -89 0 -43 -36
-139 -58 -156 -4 -3 -20 -25 -36 -49 -23 -37 -26 -47 -17 -67 8 -19 8 -24 -2
-24 -7 0 -21 -16 -30 -35 -9 -20 -24 -38 -32 -41 -12 -5 -15 -32 -15 -159 0
-138 2 -154 18 -158 16 -4 16 -5 0 -6 -17 -1 -18 -33 -18 -525 l0 -525 37 5
c29 4 34 3 23 -5 -8 -6 -25 -11 -37 -11 l-23 0 0 -245 c0 -242 0 -245 21 -245
12 0 23 8 26 20 3 11 9 20 15 20 5 0 4 -9 -2 -20 -11 -20 -8 -20 485 -20 360
0 495 3 495 11 0 19 -90 92 -116 95 -42 5 -64 15 -75 36 -15 27 -4 34 31 21
36 -14 39 -1 6 25 -30 23 -37 55 -14 60 10 2 37 -10 62 -27 25 -17 50 -31 56
-31 6 0 8 -5 4 -12 -5 -8 -2 -9 9 -5 11 4 17 1 17 -8 0 -8 5 -15 11 -15 5 0 7
5 4 11 -17 26 33 -16 59 -51 16 -21 34 -36 40 -34 6 2 29 -14 51 -36 31 -30
48 -39 74 -40 33 0 33 1 17 19 -15 16 -15 19 -1 24 8 4 15 3 15 -2 0 -7 22
-20 64 -40 5 -2 6 4 3 13 -5 14 -3 15 13 6 24 -13 30 -13 30 3 0 6 -21 23 -47
37 -27 15 -53 38 -63 57 -10 18 -21 29 -26 25 -5 -4 -6 -3 -2 2 4 5 2 16 -5
24 -10 13 -9 15 6 9 10 -4 23 -7 28 -7 5 0 9 -5 9 -10 0 -6 10 -24 21 -40 19
-25 27 -28 65 -26 24 1 46 5 50 8 7 8 -15 46 -51 87 l-30 34 28 -5 c15 -3 27
-2 27 2 0 14 -29 32 -40 25 -6 -4 -10 7 -10 29 0 20 5 36 10 36 6 0 10 14 10
31 0 23 5 32 21 36 16 5 20 12 17 34 -3 15 -1 26 4 23 4 -3 8 0 8 5 0 6 7 11
15 11 8 0 15 5 15 10 0 6 5 10 10 10 6 0 10 -7 10 -15 0 -23 15 -18 30 10 10
19 11 30 2 50 -14 31 -15 45 -3 45 5 0 14 -12 19 -27 l10 -28 1 30 c2 49 15
58 31 22 7 -17 15 -26 18 -19 2 7 8 10 13 7 5 -4 6 0 3 8 -3 8 2 19 10 26 12
10 13 18 4 39 -7 15 -18 34 -25 43 -12 15 -11 16 14 11 15 -2 33 -9 39 -13 21
-17 23 4 5 40 -10 20 -22 47 -26 61 -7 24 -7 24 11 9 40 -34 44 -29 19 27 -14
31 -23 59 -21 61 6 6 46 -48 46 -63 0 -8 5 -14 10 -14 15 0 12 22 -5 47 -14
20 -13 21 8 16 13 -3 18 -1 12 4 -6 4 -22 24 -35 43 -19 28 -20 32 -5 20 11
-8 32 -30 48 -47 16 -18 33 -30 39 -27 5 4 1 16 -11 28 -27 29 -29 56 -3 33
10 -10 21 -17 25 -17 8 0 2 102 -8 124 -6 13 -5 17 3 12 6 -3 14 -1 18 5 8 14
-16 31 -36 23 -12 -4 -12 -3 -3 7 9 9 8 17 -7 37 -11 13 -17 28 -14 33 7 12
33 -13 27 -27 -2 -6 3 -14 13 -18 12 -4 15 -2 10 9 -3 9 0 15 10 15 18 0 10
40 -17 86 -24 41 -24 44 6 44 23 0 24 2 15 20 -6 11 -8 25 -5 30 7 11 -13 48
-40 73 -20 18 -20 18 2 12 17 -5 22 -1 25 17 4 24 -9 57 -27 70 -5 4 -6 8 -2
8 4 0 -5 11 -20 25 l-28 25 23 6 c24 7 31 34 8 34 -8 0 -16 7 -20 15 -7 20 9
19 40 -2 25 -16 27 -16 44 8 25 32 34 84 19 110 -9 17 -8 23 2 30 11 6 11 14
0 44 -11 31 -10 39 7 68 10 17 24 52 31 77 7 25 17 59 23 75 5 17 11 39 13 50
1 11 8 19 14 18 22 -5 10 18 -15 29 -15 7 -40 25 -57 41 -17 16 -48 37 -69 48
-41 21 -118 88 -118 102 0 5 17 7 38 4 20 -3 31 -3 25 0 -10 3 -10 8 1 19 8 8
19 14 24 14 6 0 12 5 14 12 3 8 13 5 33 -10 33 -26 46 -21 20 8 -21 23 -4 27
19 4 18 -18 21 -11 5 17 -9 18 -8 19 17 13 33 -9 74 -42 74 -62 0 -12 -3 -12
-15 -2 -26 21 -17 -7 10 -35 43 -42 66 -34 99 35 25 52 32 60 56 60 24 0 27 3
22 22 -3 14 -2 19 7 14 7 -4 18 5 29 23 12 23 24 31 45 31 15 0 39 7 53 16 19
13 38 15 85 11 76 -8 117 -29 125 -65 4 -15 13 -36 21 -48 7 -11 16 -48 19
-81 6 -55 5 -62 -14 -72 -18 -10 -21 -20 -21 -82 0 -74 -6 -93 -22 -69 -7 11
-8 8 -3 -12 5 -25 3 -27 -51 -38 -39 -8 -78 -9 -128 -2 -42 5 -74 6 -78 0 -3
-5 -12 -6 -21 -3 -12 5 -12 -4 5 -55 20 -59 37 -78 37 -40 0 13 7 20 20 20 10
0 24 -9 30 -20 6 -11 7 -20 3 -20 -4 0 -2 -5 5 -12 7 -7 12 -26 13 -42 0 -27
2 -28 9 -11 5 12 6 -1 3 -35 -3 -30 -11 -58 -16 -61 -6 -5 -6 -23 2 -52 6 -25
11 -60 11 -76 0 -29 2 -31 40 -31 23 0 40 -5 40 -11 0 -6 11 -20 25 -31 34
-27 31 -38 -10 -38 -42 0 -47 -17 -7 -26 42 -10 72 -32 72 -55 0 -11 7 -27 15
-35 8 -9 15 -26 15 -39 0 -24 23 -55 41 -55 5 0 9 -7 9 -15 0 -11 11 -15 40
-15 29 0 40 -4 40 -15 0 -9 20 -20 55 -30 30 -9 55 -21 55 -26 0 -5 7 -9 15
-9 8 0 15 -6 15 -13 0 -14 68 -52 85 -48 5 1 7 -1 3 -5 -8 -8 26 -36 52 -43 8
-2 44 -5 80 -8 105 -6 107 -7 120 -63 8 -33 9 -55 2 -63 -16 -20 -20 -86 -5
-91 7 -3 19 -18 25 -33 7 -15 15 -30 18 -33 25 -24 52 -88 55 -133 2 -22 6
-42 9 -45 3 -3 6 145 5 329 l0 334 -56 28 c-72 37 -141 87 -148 110 -4 9 -11
17 -17 17 -6 0 -26 11 -43 24 -18 14 -44 28 -59 32 -15 3 -25 11 -23 18 3 6
-7 23 -20 38 -38 40 -42 102 -10 172 19 40 32 57 51 62 34 8 240 -22 299 -45
l27 -11 0 735 0 735 -885 0 -885 0 0 -80z m360 -520 c-29 -23 -43 -25 -38 -7
5 14 50 38 58 31 2 -3 -6 -14 -20 -24z m205 -309 c-6 -5 -25 10 -25 20 0 5 6
4 14 -3 8 -7 12 -15 11 -17z m-1437 -135 c10 -11 -12 -26 -38 -26 -27 0 -46
21 -32 35 7 6 61 -1 70 -9z m-78 -138 c0 -21 -3 -29 -10 -22 -5 5 -7 19 -4 32
9 31 14 27 14 -10z m172 3 c133 -57 88 -237 -53 -211 -75 14 -115 77 -104 162
4 27 9 47 12 44 3 -2 19 2 36 9 43 19 58 18 109 -4z m-406 -15 c12 -13 10 -15
-13 -18 -28 -4 -28 -4 7 -15 30 -10 31 -11 10 -12 -14 0 -35 2 -48 6 l-24 6
24 23 c28 28 26 27 44 10z m79 -6 c18 -8 17 -9 -7 -9 -16 -1 -28 4 -28 9 0 12
8 12 35 0z m155 -61 c0 -16 -4 -29 -10 -29 -5 0 -10 16 -10 36 0 21 4 33 10
29 6 -3 10 -19 10 -36z m924 -5 c10 -27 7 -31 -21 -27 -52 8 -57 12 -43 28 16
20 56 19 64 -1z m-1201 -71 c-7 -2 -19 -2 -25 0 -7 3 -2 5 12 5 14 0 19 -2 13
-5z m1187 -9 c40 -27 50 -45 50 -89 0 -43 -19 -69 -67 -94 -30 -15 -99 -14
-132 4 -35 18 -64 75 -55 110 16 62 147 107 204 69z m-665 -54 c-3 -5 -13 -10
-21 -10 -8 0 -12 5 -9 10 3 6 13 10 21 10 8 0 12 -4 9 -10z m765 -7 c0 -10 -7
-27 -15 -37 -14 -19 -15 -18 -15 17 0 26 4 37 15 37 8 0 15 -8 15 -17z m-855
-54 c11 -17 -1 -21 -37 -14 -29 7 -30 9 -13 16 29 11 43 11 50 -2z m495 -5 c0
-9 9 -18 20 -21 21 -6 23 -24 4 -30 -15 -5 -54 32 -54 51 0 9 7 16 15 16 8 0
15 -7 15 -16z m-450 -44 c0 -5 -17 -10 -37 -9 -31 0 -34 2 -18 9 28 12 55 12
55 0z m133 -80 c6 -22 0 -25 -22 -11 -7 5 -10 14 -7 20 11 17 23 13 29 -9z
m905 8 c7 -7 11 -21 11 -32 -1 -15 -3 -17 -6 -5 -2 9 -25 23 -51 32 l-47 16
41 0 c22 1 45 -4 52 -11z m-566 -35 c18 -16 25 -43 10 -43 -4 0 -13 5 -20 12
-14 14 -27 4 -16 -13 13 -22 10 -79 -5 -79 -8 0 -11 6 -7 15 3 9 0 15 -9 15
-8 0 -15 9 -15 20 0 11 -7 20 -15 20 -22 0 -18 14 8 25 12 6 21 18 21 28 -2
22 24 22 48 0z m-172 -24 c0 -10 -4 -19 -10 -19 -5 0 -10 5 -10 10 0 6 -7 10
-15 10 -21 0 -19 18 3 23 24 5 32 -1 32 -24z m109 -76 c10 -19 9 -23 -3 -23
-16 0 -29 27 -20 42 7 11 7 10 23 -19z m661 -48 c11 -13 10 -14 -4 -9 -9 3
-16 10 -16 15 0 13 6 11 20 -6z m-1338 -32 c-6 -2 -10 -9 -6 -14 3 -5 -1 -9
-8 -10 -16 -1 -21 -2 -146 -34 -57 -15 -106 -25 -108 -22 -7 7 184 67 212 67
12 0 26 5 29 10 3 6 14 10 23 9 11 0 12 -2 4 -6z m817 -34 c18 -17 30 -33 27
-36 -2 -3 -17 7 -33 21 -15 14 -31 26 -35 26 -5 0 -8 5 -8 10 0 18 16 11 49
-21z m-825 -54 c-10 -8 -23 -14 -29 -14 -5 0 -1 6 9 14 11 8 24 15 30 15 5 0
1 -7 -10 -15z m844 -38 c44 -42 41 -55 -5 -19 -21 16 -48 34 -61 41 -12 7 -20
16 -17 22 8 12 42 -6 83 -44z m-1088 29 c0 -2 -9 -6 -20 -9 -11 -3 -18 -1 -14
4 5 9 34 13 34 5z m1210 -72 c22 -15 40 -28 40 -31 0 -5 -51 22 -75 41 -33 25
-8 18 35 -10z m-133 -25 c17 -17 5 -43 -13 -28 -15 12 -19 39 -6 39 4 0 13 -5
19 -11z m183 -206 c0 -8 -9 0 -50 45 l-45 47 48 -45 c26 -24 47 -45 47 -47z
m-470 -558 c16 -19 1 -19 -24 0 -16 12 -17 15 -4 15 8 0 21 -7 28 -15z m206
-151 c8 3 14 1 14 -4 0 -6 3 -9 8 -8 9 3 72 -31 72 -38 0 -4 -7 -3 -16 0 -14
5 -15 4 -4 -9 7 -8 8 -15 2 -15 -5 0 -15 6 -21 14 -6 7 -40 28 -76 45 -36 18
-65 37 -65 43 0 5 16 0 36 -12 20 -11 43 -19 50 -16z m3 -97 c1 -11 -47 25
-54 41 -3 8 8 3 24 -10 17 -13 30 -27 30 -31z m126 25 c-3 -3 -11 0 -18 7 -9
10 -8 11 6 5 10 -3 15 -9 12 -12z m0 -22 c3 -5 2 -10 -4 -10 -5 0 -13 5 -16
10 -3 6 -2 10 4 10 5 0 13 -4 16 -10z m125 0 c0 -5 -7 -7 -15 -4 -8 4 -15 8
-15 10 0 2 7 4 15 4 8 0 15 -4 15 -10z m-910 -105 c0 -19 -6 -19 -14 0 -3 8
-1 15 4 15 6 0 10 -7 10 -15z"/>
<path d="M556 1908 c-3 -13 -6 -34 -6 -48 l0 -25 20 25 c23 29 26 70 6 70 -7
0 -16 -10 -20 -22z"/>
<path d="M1248 1747 c-3 -13 -1 -32 3 -43 6 -17 8 -16 18 10 12 30 9 56 -8 56
-5 0 -11 -10 -13 -23z"/>
<path d="M430 2585 c0 -10 9 -15 28 -14 17 1 20 3 9 6 -9 2 -15 9 -12 14 4 5
-1 9 -9 9 -9 0 -16 -7 -16 -15z"/>
<path d="M2046 2265 c-9 -14 -13 -25 -9 -25 10 0 36 40 30 46 -2 3 -12 -7 -21
-21z"/>
<path d="M2058 2213 c7 -3 16 -2 19 1 4 3 -2 6 -13 5 -11 0 -14 -3 -6 -6z"/>
<path d="M1900 2201 c13 -9 13 -11 1 -11 -11 0 -9 -4 5 -15 10 -8 26 -14 34
-14 9 0 4 6 -10 14 -14 7 -24 17 -22 21 2 5 -2 10 -10 12 -9 2 -8 0 2 -7z"/>
<path d="M2038 2193 c-9 -2 -15 -10 -12 -18 4 -9 -4 -15 -23 -18 -18 -2 -10
-5 21 -6 38 -1 47 -4 42 -16 -3 -8 -1 -15 3 -15 19 0 22 35 5 47 -10 7 -12 13
-6 13 7 0 12 5 12 10 0 10 -12 11 -42 3z"/>
<path d="M1891 2147 c2 -1 13 -9 24 -17 19 -14 19 -14 6 3 -7 9 -18 17 -24 17
-6 0 -8 -1 -6 -3z"/>
<path d="M2030 2111 c0 -8 41 -23 47 -17 2 1 -8 8 -22 14 -14 6 -25 8 -25 3z"/>
<path d="M2105 2010 c3 -5 8 -10 11 -10 2 0 4 5 4 10 0 6 -5 10 -11 10 -5 0
-7 -4 -4 -10z"/>
<path d="M1870 1959 c0 -5 5 -7 10 -4 6 3 10 8 10 11 0 2 -4 4 -10 4 -5 0 -10
-5 -10 -11z"/>
<path d="M1923 1636 c-4 -5 -1 -6 5 -2 8 5 12 -1 12 -16 0 -18 -2 -20 -10 -8
-5 8 -10 10 -10 4 0 -6 6 -17 13 -23 8 -6 19 -29 26 -51 11 -36 15 -40 39 -35
15 2 45 5 67 6 65 2 95 10 95 25 0 8 -6 14 -13 14 -7 0 -18 9 -25 20 -10 16
-23 20 -66 20 -59 0 -81 15 -44 29 17 7 19 10 6 10 -10 1 -18 5 -18 9 0 11
-70 9 -77 -2z"/>
<path d="M2115 1120 c-3 -5 -14 -10 -24 -10 -19 0 -46 -28 -74 -77 -12 -23
-16 -44 -12 -77 l6 -46 -30 4 -30 3 20 -25 c13 -17 18 -34 14 -49 -3 -13 -1
-23 4 -23 6 0 15 -10 22 -21 10 -20 9 -21 -15 -15 -21 5 -26 3 -26 -13 0 -26
37 -69 47 -54 9 13 63 6 63 -8 0 -13 23 -6 37 11 7 8 13 24 13 35 0 11 11 37
25 56 21 32 58 145 72 221 9 50 -88 127 -112 88z"/>
<path d="M2055 686 c28 -23 55 -25 55 -4 0 5 -4 7 -8 4 -5 -3 -21 2 -36 10
-41 21 -45 17 -11 -10z"/>
<path d="M1962 666 c0 -49 16 -65 56 -59 17 3 32 8 32 12 0 10 -73 81 -84 81
-2 0 -4 -16 -4 -34z"/>
<path d="M2861 575 c-16 -31 -26 -71 -31 -124 -9 -101 -29 -135 -100 -173 -30
-17 -61 -35 -68 -42 -26 -25 -196 16 -209 49 -3 8 -11 15 -17 15 -7 0 -20 19
-30 41 -15 34 -18 59 -14 135 4 70 2 94 -8 98 -16 6 -77 -15 -87 -31 -10 -16
-71 -17 -97 -1 -15 10 -22 9 -39 -6 -22 -20 -18 -44 7 -42 10 0 18 -8 20 -21
3 -23 23 -43 45 -47 7 -1 26 -12 41 -24 16 -12 34 -22 40 -22 7 0 19 -21 27
-48 19 -58 7 -195 -20 -227 -9 -11 -27 -39 -39 -62 l-23 -43 445 0 446 0 -1
278 c-1 152 -4 268 -6 258 -11 -42 -35 -54 -95 -49 -49 5 -61 10 -93 43 -21
21 -38 49 -39 62 -2 40 -29 31 -55 -17z"/>
<path d="M1511 444 c0 -11 3 -14 6 -6 3 7 2 16 -1 19 -3 4 -6 -2 -5 -13z"/>
<path d="M1141 55 c-1 -15 37 -61 44 -54 3 4 -5 20 -19 35 -14 16 -25 25 -25
19z"/>
</g>
</svg>
